Music_Steven:
	channel_count 3
	channel 1, Music_Steven_Ch1
	channel 2, Music_Steven_Ch2
	channel 3, Music_Steven_Ch3

Music_Steven_Ch1:
	volume 7, 7
	duty_cycle 2
	note_type 12, 10, 7
	tempo 90
	octave 3
	volume_envelope 11, 7
	note C_, 2
	octave 2
	note G_, 2
	note B_, 2
	note F#, 2
	note A#, 2
	note F_, 2
	note G#, 2
	note E_, 2
	note G_, 2
	note D#, 2
	note F#, 2
	note D_, 2
	note F_, 2
	note C#, 2
	note D#, 2
	note C#, 2
	note C_, 2
	note F#, 2
	note A#, 2
	note F#, 2
	note F_, 2
	note D#, 2
	octave 1
	note B_, 2
	octave 2
	note F#, 2
	note F_, 2
	note D#, 2
	note C_, 2
	note D#, 2
	note F_, 2
	note D#, 2
	note F_, 2
	octave 1
	note B_, 2
	octave 2
	note C_, 2
	note F#, 2
	note A#, 2
	note F#, 2
	note F_, 2
	note D#, 2
	octave 1
	note B_, 2
	octave 2
	note F#, 2
	note F_, 2
	note D#, 2
	note C_, 2
	note D#, 2
	note F_, 2
	note D#, 2
	note F_, 2
	octave 1
	note B_, 2
	octave 2
	note C_, 2
	note F#, 2
	note A#, 2
	note F#, 2
	note F_, 2
	note D#, 2
	octave 1
	note B_, 2
	octave 2
	note F#, 2
	note F_, 2
	note D#, 2
	note C_, 2
	note D#, 2
	note F_, 2
	note D#, 2
	note F_, 2
	octave 1
	note B_, 2
	octave 2
	note C_, 2
	note F#, 2
	note A#, 2
	note F#, 2
	note F_, 2
	note D#, 2
	octave 1
	note B_, 2
	octave 2
	note F#, 2
	note F_, 2
	note D#, 2
	note C_, 2
	note A#, 2
	note C_, 2
	note F#, 2
	note F_, 2
	note D#, 2
.mainloop:
	note C_, 2
	note G_, 2
	note C_, 2
	note G_, 2
	note C_, 2
	note G_, 2
	note C_, 2
	note G_, 2
	note C_, 2
	note G_, 2
	note C_, 2
	note G_, 2
	note C_, 2
	octave 3
	note C_, 2
	octave 2
	note G_, 2
	note E_, 2
	note C#, 2
	note G#, 2
	note C#, 2
	note G#, 2
	note C#, 2
	note G#, 2
	note C#, 2
	note G#, 2
	note C#, 2
	note G#, 2
	note C#, 2
	note G#, 2
	note C#, 2
	note C#, 2
	note G#, 2
	note F_, 2
	note C_, 2
	note G_, 2
	note C_, 2
	note G_, 2
	note C_, 2
	note G_, 2
	note C_, 2
	note G_, 2
	note C_, 2
	note G_, 2
	octave 3
	note C_, 2
	octave 2
	note G_, 2
	note E_, 2
	note G_, 2
	note E_, 2
	note G_, 2
	note C#, 2
	note G#, 2
	note C#, 2
	note G#, 2
	note C#, 2
	note G#, 2
	note C#, 2
	note G#, 2
	note C#, 2
	note G#, 2
	note C#, 2
	note G#, 2
	note C#, 2
	note G#, 2
	note C#, 2
	note G#, 2
	note C_, 2
	note G_, 2
	note C_, 2
	note G_, 2
	note C_, 2
	note G_, 2
	note C_, 2
	note G_, 2
	note C_, 2
	note G_, 2
	note C_, 2
	note G_, 2
	note C_, 2
	note G_, 2
	note C_, 2
	note G_, 2
	note C#, 2
	note G#, 2
	note C#, 2
	note G#, 2
	note C#, 2
	note G#, 2
	note C#, 2
	note G#, 2
	note C#, 2
	note G#, 2
	note C#, 2
	note G#, 2
	note C#, 2
	note G#, 2
	note C#, 2
	note G#, 2
	note D#, 2
	note A#, 2
	note D#, 2
	note A#, 2
	note D#, 2
	note A#, 2
	note D#, 2
	note A#, 2
	note D#, 2
	note A#, 2
	note D#, 2
	note A#, 2
	note D#, 2
	note A#, 2
	note D#, 2
	note A#, 2
	note C_, 2
	note G_, 2
	octave 3
	note C_, 2
	octave 2
	note C_, 2
	note G_, 2
	octave 3
	note C_, 2
	octave 2
	note C_, 2
	note G_, 2
	octave 3
	note C_, 2
	note F_, 2
	note G_, 2
	note F_, 2
	note G_, 2
	note F_, 2
	note C_, 2
	octave 2
	note G_, 2
	note C_, 2
	note G_, 2
	octave 3
	note C_, 2
	octave 2
	note C_, 2
	note G_, 2
	octave 3
	note C_, 2
	octave 2
	note C_, 2
	note G_, 2
	octave 3
	note C_, 2
	note G_, 2
	octave 2
	note B_, 2
	octave 3
	note F#, 2
	octave 2
	note A#, 2
	octave 3
	note F_, 2
	octave 2
	note A_, 2
	octave 3
	note E_, 2
	octave 2
	note C_, 2
	note C_, 2
	note C_, 2
	note C#, 6
	note D#, 4
	octave 1
	note G_, 2
	note G_, 2
	note G_, 2
	note G#, 6
	octave 2
	note C#, 4
	note C_, 2
	note C_, 2
	note C_, 2
	note C#, 6
	note D#, 4
	octave 1
	note G_, 2
	note G_, 2
	note G_, 2
	note G#, 6
	octave 2
	note C#, 4
	note C_, 2
	note C_, 2
	note C_, 2
	note C#, 6
	note D#, 4
	octave 1
	note G_, 2
	note G_, 2
	note G_, 2
	note G#, 6
	octave 2
	note C#, 4
	note C_, 2
	note C_, 2
	note C_, 2
	note C#, 6
	note D#, 4
	octave 1
	note G_, 2
	note G_, 2
	note G_, 2
	octave 2
	note C#, 4
	note G#, 2
	note D_, 4
	note C#, 2
	note G#, 2
	note C#, 2
	note A_, 2
	note C#, 2
	octave 3
	note C#, 2
	octave 2
	note C#, 2
	note A_, 2
	note C#, 2
	note G#, 2
	note C#, 2
	note A_, 2
	note C#, 2
	octave 3
	note C#, 2
	octave 2
	note C#, 2
	octave 3
	note D_, 2
	octave 2
	note C#, 2
	note G#, 2
	note C#, 2
	note A_, 2
	note C#, 2
	octave 3
	note C#, 2
	octave 2
	note C#, 2
	note A_, 2
	note C#, 2
	note G#, 2
	note C#, 2
	note A_, 2
	note C#, 2
	octave 3
	note C#, 2
	octave 2
	note C#, 2
	octave 3
	note D_, 2
	octave 2
	note E_, 2
	note B_, 2
	note E_, 2
	octave 3
	note C_, 2
	octave 2
	note E_, 2
	octave 3
	note E_, 2
	octave 2
	note E_, 2
	octave 3
	note C_, 2
	octave 2
	note E_, 2
	note B_, 2
	note E_, 2
	octave 3
	note C_, 2
	octave 2
	note E_, 2
	octave 3
	note E_, 2
	octave 2
	note E_, 2
	octave 3
	note F_, 2
	octave 2
	note E_, 2
	note B_, 2
	note E_, 2
	octave 3
	note C_, 2
	octave 2
	note E_, 2
	octave 3
	note E_, 2
	octave 2
	note E_, 2
	octave 3
	note C_, 2
	octave 2
	note E_, 2
	note B_, 2
	note E_, 2
	octave 3
	note C_, 2
	octave 2
	note E_, 2
	octave 3
	note E_, 2
	octave 2
	note E_, 2
	octave 3
	note F_, 2
	octave 2
	note A_, 4
	note E_, 4
	octave 1
	note A_, 4
	octave 2
	note G_, 4
	note D_, 4
	octave 1
	note G_, 4
	octave 2
	note C_, 4
	note E_, 4
	note G_, 4
	note F_, 4
	note C_, 4
	octave 1
	note F_, 4
	note G_, 2
	octave 2
	note D_, 2
	octave 1
	note G_, 2
	octave 2
	note D_, 2
	octave 1
	note G_, 2
	octave 2
	note D_, 2
	octave 1
	note A_, 2
	octave 2
	note E_, 2
	octave 1
	note A_, 2
	octave 2
	note E_, 2
	octave 1
	note A_, 2
	octave 2
	note E_, 2
	octave 1
	note A#, 2
	octave 2
	note F_, 2
	octave 1
	note A#, 2
	octave 2
	note F_, 2
	octave 1
	note A#, 2
	octave 2
	note F_, 2
	note C_, 2
	note G_, 2
	note C_, 2
	note G_, 2
	note C_, 2
	note G_, 2
	note C_, 2
	note G_, 2
	note C_, 2
	note G_, 2
	note C_, 2
	note G_, 2
	note C_, 2
	note G_, 2
	note C_, 2
	note G_, 2
	note C_, 2
	note G_, 2
	note C_, 2
	note G_, 2
	note C_, 2
	note G_, 2
	note C#, 2
	note G#, 2
	note C#, 2
	note G#, 2
	note C#, 2
	note G#, 2
	note C#, 2
	note G#, 2
	note C#, 2
	note G#, 2
	note C#, 2
	note G#, 2
	note C#, 2
	note G#, 2
	note C#, 2
	note G#, 2
	note C_, 2
	note G_, 2
	note C_, 2
	note G_, 2
	note C_, 2
	note G_, 2
	note C_, 2
	note G_, 2
	note C_, 2
	note G_, 2
	note C_, 2
	note G_, 2
	note C_, 2
	note G_, 2
	note C_, 2
	note G_, 2
	note C#, 2
	note G#, 2
	note C#, 2
	note G#, 2
	note C#, 2
	note G#, 2
	note C#, 2
	note G#, 2
	note C#, 2
	note G#, 2
	note C#, 2
	note G#, 2
	note C#, 2
	note C#, 2
	note G#, 2
	note F_, 2
	note C_, 2
	note G_, 2
	note C_, 2
	note G_, 2
	note C_, 2
	note G_, 2
	note C_, 2
	note G_, 2
	note C_, 2
	note G_, 2
	note C_, 2
	note G_, 2
	note C_, 2
	octave 3
	note C_, 2
	octave 2
	note G_, 2
	note E_, 2
	note C#, 2
	note G#, 2
	note C#, 2
	note G#, 2
	note C#, 2
	note G#, 2
	note C#, 2
	note G#, 2
	note C#, 2
	note G#, 2
	note C#, 2
	note G#, 2
	note C#, 2
	note C#, 2
	note G#, 2
	note F_, 2
	note C_, 2
	note G_, 2
	note C_, 2
	note G_, 2
	note C_, 2
	note G_, 2
	note C_, 2
	note G_, 2
	note C_, 2
	note G_, 2
	octave 3
	note C_, 2
	octave 2
	note G_, 2
	note E_, 2
	note G_, 2
	note E_, 2
	note G_, 2
	note C#, 2
	note G#, 2
	note C#, 2
	note G#, 2
	note C#, 2
	note G#, 2
	note C#, 2
	note G#, 2
	note C#, 2
	note G#, 2
	note C#, 2
	note G#, 2
	note C#, 2
	note G#, 2
	note C#, 2
	note G#, 2
	note C_, 2
	note G_, 2
	note C_, 2
	note G_, 2
	note C_, 2
	note G_, 2
	note C_, 2
	note G_, 2
	note C_, 2
	note G_, 2
	note C_, 2
	note G_, 2
	note C_, 2
	note G_, 2
	note C_, 2
	note G_, 2
	note C#, 2
	note G#, 2
	note C#, 2
	note G#, 2
	note C#, 2
	note G#, 2
	note C#, 2
	note G#, 2
	note C#, 2
	note G#, 2
	note C#, 2
	note G#, 2
	note C#, 2
	note G#, 2
	note C#, 2
	note G#, 2
	note D#, 2
	note A#, 2
	note D#, 2
	note A#, 2
	note D#, 2
	note A#, 2
	note D#, 2
	note A#, 2
	note D#, 2
	note A#, 2
	note D#, 2
	note A#, 2
	note D#, 2
	note A#, 2
	note D#, 2
	note A#, 2
	note C_, 2
	note G_, 2
	octave 3
	note C_, 2
	octave 2
	note C_, 2
	note G_, 2
	octave 3
	note C_, 2
	octave 2
	note C_, 2
	note G_, 2
	octave 3
	note C_, 2
	note F_, 2
	note G_, 2
	note F_, 2
	note G_, 2
	note F_, 2
	note C_, 2
	octave 2
	note G_, 2
	note C_, 2
	note G_, 2
	octave 3
	note C_, 2
	octave 2
	note C_, 2
	note G_, 2
	octave 3
	note C_, 2
	octave 2
	note C_, 2
	note G_, 2
	octave 3
	note C_, 2
	note G_, 2
	octave 2
	note B_, 2
	octave 3
	note F#, 2
	octave 2
	note A#, 2
	octave 3
	note F_, 2
	octave 2
	note A_, 2
	octave 3
	note E_, 2
	octave 2
	note C_, 2
	note C_, 2
	note C_, 2
	note C#, 6
	note D#, 4
	octave 1
	note G_, 2
	note G_, 2
	note G_, 2
	note G#, 6
	octave 2
	note C#, 4
	note C_, 2
	note C_, 2
	note C_, 2
	note C#, 6
	note D#, 4
	octave 1
	note G_, 2
	note G_, 2
	note G_, 2
	note G#, 6
	octave 2
	note C#, 4
	note C_, 2
	note C_, 2
	note C_, 2
	note C#, 6
	note D#, 4
	octave 1
	note G_, 2
	note G_, 2
	note G_, 2
	note G#, 6
	octave 2
	note C#, 4
	note C_, 2
	note C_, 2
	note C_, 2
	note C#, 6
	note D#, 4
	octave 1
	note G_, 2
	note G_, 2
	note G_, 2
	octave 2
	note C#, 4
	note G#, 2
	note D_, 4
	note C#, 2
	note G#, 2
	note C#, 2
	note A_, 2
	note C#, 2
	octave 3
	note C#, 2
	octave 2
	note C#, 2
	note A_, 2
	note C#, 2
	note G#, 2
	note C#, 2
	note A_, 2
	note C#, 2
	octave 3
	note C#, 2
	octave 2
	note C#, 2
	octave 3
	note D_, 2
	octave 2
	note C#, 2
	note G#, 2
	note C#, 2
	note A_, 2
	note C#, 2
	octave 3
	note C#, 2
	octave 2
	note C#, 2
	note A_, 2
	note C#, 2
	note G#, 2
	note C#, 2
	note A_, 2
	note C#, 2
	octave 3
	note C#, 2
	octave 2
	note C#, 2
	octave 3
	note D_, 2
	octave 2
	note E_, 2
	note B_, 2
	note E_, 2
	octave 3
	note C_, 2
	octave 2
	note E_, 2
	octave 3
	note E_, 2
	octave 2
	note E_, 2
	octave 3
	note C_, 2
	octave 2
	note E_, 2
	note B_, 2
	note E_, 2
	octave 3
	note C_, 2
	octave 2
	note E_, 2
	octave 3
	note E_, 2
	octave 2
	note E_, 2
	octave 3
	note F_, 2
	octave 2
	note E_, 2
	note B_, 2
	note E_, 2
	octave 3
	note C_, 2
	octave 2
	note E_, 2
	octave 3
	note E_, 2
	octave 2
	note E_, 2
	octave 3
	note C_, 2
	octave 2
	note E_, 2
	note B_, 2
	note E_, 2
	octave 3
	note C_, 2
	octave 2
	note E_, 2
	octave 3
	note E_, 2
	octave 2
	note E_, 2
	octave 3
	note F_, 2
	octave 2
	note A_, 4
	note E_, 4
	octave 1
	note A_, 4
	octave 2
	note G_, 4
	note D_, 4
	octave 1
	note G_, 4
	octave 2
	note C_, 4
	note E_, 4
	note G_, 4
	note F_, 4
	note C_, 4
	octave 1
	note F_, 4
	note G_, 2
	octave 2
	note D_, 2
	octave 1
	note G_, 2
	octave 2
	note D_, 2
	octave 1
	note G_, 2
	octave 2
	note D_, 2
	octave 1
	note A_, 2
	octave 2
	note E_, 2
	octave 1
	note A_, 2
	octave 2
	note E_, 2
	octave 1
	note A_, 2
	octave 2
	note E_, 2
	octave 1
	note A#, 2
	octave 2
	note F_, 2
	octave 1
	note A#, 2
	octave 2
	note F_, 2
	octave 1
	note A#, 2
	octave 2
	note F_, 2
	note C_, 2
	note G_, 2
	note C_, 2
	note G_, 2
	note C_, 2
	note G_, 2
	note C_, 2
	note G_, 2
	note C_, 2
	note G_, 2
	note C_, 2
	note G_, 2
	note C_, 2
	note G_, 2
	note C_, 2
	note G_, 2
	note C_, 2
	note G_, 2
	note C_, 2
	note G_, 2
	note C_, 2
	note G_, 2
	note C#, 2
	note G#, 2
	note C#, 2
	note G#, 2
	note C#, 2
	note G#, 2
	note C#, 2
	note G#, 2
	note C#, 2
	note G#, 2
	note C#, 2
	note G#, 2
	note C#, 2
	note G#, 2
	note C#, 2
	note G#, 2
	note C_, 2
	note G_, 2
	note C_, 2
	note G_, 2
	note C_, 2
	note G_, 2
	note C_, 2
	note G_, 2
	note C_, 2
	note G_, 2
	note C_, 2
	note G_, 2
	note C_, 2
	note G_, 2
	note C_, 2
	note G_, 2
	note C#, 2
	note G#, 2
	note C#, 2
	note G#, 2
	note C#, 2
	note G#, 2
	note C#, 2
	note G#, 2
	note C#, 2
	note G#, 2
	note C#, 2
	note G#, 2
	note C#, 2
	note C#, 2
	note G#, 2
	note F_, 2
	sound_loop 0, .mainloop

Music_Steven_Ch2:
	duty_cycle 1
	note_type 12, 10, 7
	octave 4
	vibrato 20, 1, 4
	note D#, 1
	note D_, 1
	note C#, 1
	note C_, 1
	note A#, 1
	note A_, 1
	note G#, 1
	note G_, 1
	note C_, 1
	octave 3
	note B_, 1
	note A#, 1
	note A_, 1
	octave 4
	note F#, 1
	note F_, 1
	note E_, 1
	note D#, 1
	octave 3
	note A_, 1
	note G#, 1
	note G_, 1
	note F#, 1
	octave 4
	note D_, 1
	note C#, 1
	note C_, 1
	octave 3
	note B_, 1
	note F#, 1
	note F_, 1
	note E_, 1
	note D#, 1
	note A#, 1
	note A_, 1
	note A#, 1
	note B_, 1
	note G_, 2
	rest 4
	note G#, 2
	rest 4
	note A#, 4
	note E_, 2
	rest 4
	note F_, 2
	rest 4
	note G_, 4
	note G_, 2
	rest 4
	note G#, 2
	rest 4
	note A#, 4
	note A#, 2
	rest 4
	octave 4
	note C_, 2
	rest 4
	note C#, 4
	note C_, 2
	rest 4
	note C#, 2
	rest 4
	note D#, 4
	octave 3
	note G_, 2
	rest 4
	note G#, 2
	rest 4
	note A#, 4
	octave 4
	note C_, 2
	rest 4
	note C#, 2
	rest 4
	note D#, 4
	note D#, 2
	rest 4
	note F_, 2
	rest 4
	note G_, 4
.mainloop:
	octave 3
	vibrato 20, 1, 4
	note E_, 14
	note C_, 2
	octave 2
	note E_, 4
	note G_, 2
	octave 3
	note C_, 4
	note E_, 4
	note G#, 2
	note A#, 14
	note A_, 2
	note A#, 2
	note A_, 2
	note A#, 1
	rest 3
	note A#, 1
	rest 1
	note A#, 1
	rest 1
	note G#, 4
	note E_, 14
	note C_, 2
	octave 2
	note E_, 4
	note G_, 2
	octave 3
	note C_, 4
	note E_, 4
	note G#, 2
	note A#, 14
	note A_, 2
	note A#, 2
	note A_, 2
	note A#, 1
	rest 3
	note A#, 1
	rest 1
	note A#, 1
	rest 1
	note G#, 4
	note E_, 6
	note F_, 6
	note A#, 4
	note G#, 2
	note A#, 2
	note G#, 2
	note G_, 4
	note F_, 2
	note D#, 2
	note C#, 2
	note F_, 8
	note D#, 8
	note C#, 8
	note C_, 8
	octave 4
	note G_, 8
	note F_, 8
	note D#, 8
	note C#, 8
	note C_, 16
	note C_, 16
	note C_, 16
	note C_, 16
	octave 3
	note G_, 2
	note G_, 2
	note G_, 2
	note G#, 6
	note A#, 4
	note E_, 2
	note E_, 2
	note E_, 2
	note F_, 6
	note G#, 4
	note G_, 2
	note G_, 2
	note G_, 2
	note G#, 6
	note A#, 4
	octave 4
	note C_, 2
	note C_, 2
	note C_, 2
	note C#, 6
	note D#, 4
	octave 3
	note G_, 2
	note G_, 2
	note G_, 2
	note G#, 6
	note A#, 4
	note E_, 2
	note E_, 2
	note E_, 2
	note F_, 6
	note G#, 4
	note G_, 2
	note G_, 2
	note G_, 2
	note G#, 6
	note A#, 4
	octave 4
	note C_, 2
	note C_, 2
	note C_, 2
	note C#, 6
	note D#, 4
	octave 3
	note G#, 4
	octave 4
	note D#, 4
	note E_, 4
	note D#, 2
	note C#, 2
	note D#, 2
	octave 3
	note B_, 2
	note A_, 4
	note B_, 4
	note A_, 4
	note G#, 2
	note G#, 2
	octave 4
	note D#, 4
	note E_, 4
	note D#, 2
	note C#, 2
	note E_, 2
	note C#, 2
	note G#, 4
	note A_, 4
	note F#, 4
	octave 3
	note B_, 4
	octave 4
	note F#, 4
	note G_, 4
	note F#, 2
	note E_, 2
	note F#, 2
	note D_, 2
	note C_, 4
	note D_, 4
	note C_, 4
	octave 3
	note B_, 2
	note B_, 2
	octave 4
	note F#, 4
	note G_, 4
	note F#, 2
	note E_, 2
	note G_, 2
	note E_, 2
	note B_, 4
	octave 5
	note C_, 4
	note F_, 4
	note E_, 4
	octave 4
	note E_, 4
	octave 3
	note E_, 4
	octave 5
	note D_, 4
	octave 4
	note D_, 4
	octave 3
	note D_, 4
	octave 4
	note G_, 4
	octave 3
	note G_, 4
	octave 2
	note G_, 4
	octave 5
	note C_, 4
	octave 4
	note C_, 4
	octave 3
	note C_, 4
	octave 4
	note A_, 4
	octave 3
	note A_, 4
	octave 2
	note A_, 4
	octave 4
	note B_, 4
	octave 3
	note B_, 4
	octave 2
	note B_, 4
	octave 5
	note C_, 4
	octave 4
	note C_, 4
	octave 3
	note C_, 4
	octave 5
	note D_, 4
	octave 4
	note D_, 4
	rest 4
	octave 5
	note D#, 16
	note D#, 16
	octave 3
	note F_, 16
	note F_, 16
	note D_, 16
	note D_, 16
	note F_, 16
	note F_, 16
	note E_, 14
	note C_, 2
	octave 2
	note E_, 4
	note G_, 2
	octave 3
	note C_, 4
	note E_, 4
	note G#, 2
	note A#, 14
	note A_, 2
	note A#, 2
	note A_, 2
	note A#, 1
	rest 3
	note A#, 1
	rest 1
	note A#, 1
	rest 1
	note G#, 4
	note E_, 14
	note C_, 2
	octave 2
	note E_, 4
	note G_, 2
	octave 3
	note C_, 4
	note E_, 4
	note G#, 2
	note A#, 14
	note A_, 2
	note A#, 2
	note A_, 2
	note A#, 1
	rest 3
	note A#, 1
	rest 1
	note A#, 1
	rest 1
	note G#, 4
	note E_, 6
	note F_, 6
	note A#, 4
	note G#, 2
	note A#, 2
	note G#, 2
	note G_, 4
	note F_, 2
	note D#, 2
	note C#, 2
	note F_, 8
	note D#, 8
	note C#, 8
	note C_, 8
	octave 4
	note G_, 8
	note F_, 8
	note D#, 8
	note C#, 8
	note C_, 16
	note C_, 16
	note C_, 16
	note C_, 16
	octave 3
	note G_, 2
	note G_, 2
	note G_, 2
	note G#, 6
	note A#, 4
	note E_, 2
	note E_, 2
	note E_, 2
	note F_, 6
	note G#, 4
	note G_, 2
	note G_, 2
	note G_, 2
	note G#, 6
	note A#, 4
	octave 4
	note C_, 2
	note C_, 2
	note C_, 2
	note C#, 6
	note D#, 4
	octave 3
	note G_, 2
	note G_, 2
	note G_, 2
	note G#, 6
	note A#, 4
	note E_, 2
	note E_, 2
	note E_, 2
	note F_, 6
	note G#, 4
	note G_, 2
	note G_, 2
	note G_, 2
	note G#, 6
	note A#, 4
	octave 4
	note C_, 2
	note C_, 2
	note C_, 2
	note C#, 6
	note D#, 4
	octave 3
	note G#, 4
	octave 4
	note D#, 4
	note E_, 4
	note D#, 2
	note C#, 2
	note D#, 2
	octave 3
	note B_, 2
	note A_, 4
	note B_, 4
	note A_, 4
	note G#, 2
	note G#, 2
	octave 4
	note D#, 4
	note E_, 4
	note D#, 2
	note C#, 2
	note E_, 2
	note C#, 2
	note G#, 4
	note A_, 4
	note F#, 4
	octave 3
	note B_, 4
	octave 4
	note F#, 4
	note G_, 4
	note F#, 2
	note E_, 2
	note F#, 2
	note D_, 2
	note C_, 4
	note D_, 4
	note C_, 4
	octave 3
	note B_, 2
	note B_, 2
	octave 4
	note F#, 4
	note G_, 4
	note F#, 2
	note E_, 2
	note G_, 2
	note E_, 2
	note B_, 4
	octave 5
	note C_, 4
	note F_, 4
	note E_, 4
	octave 4
	note E_, 4
	octave 3
	note E_, 4
	octave 5
	note D_, 4
	octave 4
	note D_, 4
	octave 3
	note D_, 4
	octave 4
	note G_, 4
	octave 3
	note G_, 4
	octave 2
	note G_, 4
	octave 5
	note C_, 4
	octave 4
	note C_, 4
	octave 3
	note C_, 4
	octave 4
	note A_, 4
	octave 3
	note A_, 4
	octave 2
	note A_, 4
	octave 4
	note B_, 4
	octave 3
	note B_, 4
	octave 2
	note B_, 4
	octave 5
	note C_, 4
	octave 4
	note C_, 4
	octave 3
	note C_, 4
	octave 5
	note D_, 4
	octave 4
	note D_, 4
	rest 4
	octave 5
	note D#, 16
	note D#, 16
	octave 3
	note F_, 16
	note F_, 16
	note D_, 16
	note D_, 16
	note F_, 16
	note F_, 16
	sound_loop 0, .mainloop

Music_Steven_Ch3:
	note_type 12, 2, 0
	octave 4
	vibrato 6, 1, 1
	note C_, 2
	octave 3
	note G_, 2
	note B_, 2
	note F#, 2
	note A#, 2
	note F_, 2
	note G#, 2
	note E_, 2
	note G_, 2
	note D#, 2
	note F#, 2
	note D_, 2
	note F_, 2
	note C#, 2
	note D#, 2
	note C#, 2
	note C_, 2
	note F#, 2
	note A#, 2
	note F#, 2
	note F_, 2
	note D#, 2
	octave 2
	note B_, 2
	octave 3
	note F#, 2
	note F_, 2
	note D#, 2
	note C_, 2
	note D#, 2
	note F_, 2
	note D#, 2
	note F_, 2
	octave 2
	note B_, 2
	octave 3
	note C_, 2
	note F#, 2
	note A#, 2
	note F#, 2
	note F_, 2
	note D#, 2
	octave 2
	note B_, 2
	octave 3
	note F#, 2
	note F_, 2
	note D#, 2
	note C_, 2
	note D#, 2
	note F_, 2
	note D#, 2
	note F_, 2
	octave 2
	note B_, 2
	octave 3
	note C_, 2
	note F#, 2
	note A#, 2
	note F#, 2
	note F_, 2
	note D#, 2
	octave 2
	note B_, 2
	octave 3
	note F#, 2
	note F_, 2
	note D#, 2
	note C_, 2
	note D#, 2
	note F_, 2
	note D#, 2
	note F_, 2
	octave 2
	note B_, 2
	octave 3
	note C_, 2
	note F#, 2
	note A#, 2
	note F#, 2
	note F_, 2
	note D#, 2
	octave 2
	note B_, 2
	octave 3
	note F#, 2
	note F_, 2
	note D#, 2
	note C_, 2
	note A#, 2
	note C_, 2
	note F#, 2
	note F_, 2
	note D#, 2
.mainloop:
	vibrato 6, 1, 1
	note C_, 2
	note G_, 2
	note C_, 2
	note G_, 2
	note C_, 2
	note G_, 2
	note C_, 2
	note G_, 2
	note C_, 2
	note G_, 2
	note C_, 2
	note G_, 2
	note C_, 2
	octave 4
	note C_, 2
	octave 3
	note G_, 2
	note E_, 2
	note C#, 2
	note G#, 2
	note C#, 2
	note G#, 2
	note C#, 2
	note G#, 2
	note C#, 2
	note G#, 2
	note C#, 2
	note G#, 2
	note C#, 2
	note G#, 2
	note C#, 2
	note C#, 2
	note G#, 2
	note F_, 2
	note C_, 2
	note G_, 2
	note C_, 2
	note G_, 2
	note C_, 2
	note G_, 2
	note C_, 2
	note G_, 2
	note C_, 2
	note G_, 2
	octave 4
	note C_, 2
	octave 3
	note G_, 2
	note E_, 2
	note G_, 2
	note E_, 2
	note G_, 2
	note C#, 2
	note G#, 2
	note C#, 2
	note G#, 2
	note C#, 2
	note G#, 2
	note C#, 2
	note G#, 2
	note C#, 2
	note G#, 2
	note C#, 2
	note G#, 2
	note C#, 2
	note G#, 2
	note C#, 2
	note G#, 2
	note C_, 2
	note G_, 2
	note C_, 2
	note G_, 2
	note C_, 2
	note G_, 2
	note C_, 2
	note G_, 2
	note C_, 2
	note G_, 2
	note C_, 2
	note G_, 2
	note C_, 2
	note G_, 2
	note C_, 2
	note G_, 2
	note C#, 2
	note G#, 2
	note C#, 2
	note G#, 2
	note C#, 2
	note G#, 2
	note C#, 2
	note G#, 2
	note C#, 2
	note G#, 2
	note C#, 2
	note G#, 2
	note C#, 2
	note G#, 2
	note C#, 2
	note G#, 2
	note D#, 2
	note A#, 2
	note D#, 2
	note A#, 2
	note D#, 2
	note A#, 2
	note D#, 2
	note A#, 2
	note D#, 2
	note A#, 2
	note D#, 2
	note A#, 2
	note D#, 2
	note A#, 2
	note D#, 2
	note A#, 2
	note C_, 2
	note G_, 2
	octave 4
	note C_, 2
	octave 3
	note C_, 2
	note G_, 2
	octave 4
	note C_, 2
	octave 3
	note C_, 2
	note G_, 2
	octave 4
	note C_, 2
	note F_, 2
	note G_, 2
	note F_, 2
	note G_, 2
	note F_, 2
	note C_, 2
	octave 3
	note G_, 2
	note C_, 2
	note G_, 2
	octave 4
	note C_, 2
	octave 3
	note C_, 2
	note G_, 2
	octave 4
	note C_, 2
	octave 3
	note C_, 2
	note G_, 2
	octave 4
	note C_, 2
	note G_, 2
	octave 3
	note B_, 2
	octave 4
	note F#, 2
	octave 3
	note A#, 2
	octave 4
	note F_, 2
	octave 3
	note A_, 2
	octave 4
	note E_, 2
	octave 3
	note C_, 2
	note C_, 2
	note C_, 2
	note C#, 6
	note D#, 4
	octave 2
	note G_, 2
	note G_, 2
	note G_, 2
	note G#, 6
	octave 3
	note C#, 4
	note C_, 2
	note C_, 2
	note C_, 2
	note C#, 6
	note D#, 4
	octave 2
	note G_, 2
	note G_, 2
	note G_, 2
	note G#, 6
	octave 3
	note C#, 4
	note C_, 2
	note C_, 2
	note C_, 2
	note C#, 6
	note D#, 4
	octave 2
	note G_, 2
	note G_, 2
	note G_, 2
	note G#, 6
	octave 3
	note C#, 4
	note C_, 2
	note C_, 2
	note C_, 2
	note C#, 6
	note D#, 4
	octave 2
	note G_, 2
	note G_, 2
	note G_, 2
	octave 3
	note C#, 4
	note G#, 2
	note D_, 4
	note C#, 2
	note G#, 2
	note C#, 2
	note A_, 2
	note C#, 2
	octave 4
	note C#, 2
	octave 3
	note C#, 2
	note A_, 2
	note C#, 2
	note G#, 2
	note C#, 2
	note A_, 2
	note C#, 2
	octave 4
	note C#, 2
	octave 3
	note C#, 2
	octave 4
	note D_, 2
	octave 3
	note C#, 2
	note G#, 2
	note C#, 2
	note A_, 2
	note C#, 2
	octave 4
	note C#, 2
	octave 3
	note C#, 2
	note A_, 2
	note C#, 2
	note G#, 2
	note C#, 2
	note A_, 2
	note C#, 2
	octave 4
	note C#, 2
	octave 3
	note C#, 2
	octave 4
	note D_, 2
	octave 3
	note E_, 2
	note B_, 2
	note E_, 2
	octave 4
	note C_, 2
	octave 3
	note E_, 2
	octave 4
	note E_, 2
	octave 3
	note E_, 2
	octave 4
	note C_, 2
	octave 3
	note E_, 2
	note B_, 2
	note E_, 2
	octave 4
	note C_, 2
	octave 3
	note E_, 2
	octave 4
	note E_, 2
	octave 3
	note E_, 2
	octave 4
	note F_, 2
	octave 3
	note E_, 2
	note B_, 2
	note E_, 2
	octave 4
	note C_, 2
	octave 3
	note E_, 2
	octave 4
	note E_, 2
	octave 3
	note E_, 2
	octave 4
	note C_, 2
	octave 3
	note E_, 2
	note B_, 2
	note E_, 2
	octave 4
	note C_, 2
	octave 3
	note E_, 2
	octave 4
	note E_, 2
	octave 3
	note E_, 2
	octave 4
	note F_, 2
	octave 3
	note A_, 4
	note E_, 4
	octave 2
	note A_, 4
	octave 3
	note G_, 4
	note D_, 4
	octave 2
	note G_, 4
	octave 3
	note C_, 4
	note E_, 4
	note G_, 4
	note F_, 4
	note C_, 4
	octave 2
	note F_, 4
	note G_, 2
	octave 3
	note D_, 2
	octave 2
	note G_, 2
	octave 3
	note D_, 2
	octave 2
	note G_, 2
	octave 3
	note D_, 2
	octave 2
	note A_, 2
	octave 3
	note E_, 2
	octave 2
	note A_, 2
	octave 3
	note E_, 2
	octave 2
	note A_, 2
	octave 3
	note E_, 2
	octave 2
	note A#, 2
	octave 3
	note F_, 2
	octave 2
	note A#, 2
	octave 3
	note F_, 2
	octave 2
	note A#, 2
	octave 3
	note F_, 2
	note C_, 2
	note G_, 2
	note C_, 2
	note G_, 2
	note C_, 2
	note G_, 2
	note C_, 2
	note G_, 2
	note C_, 2
	note G_, 2
	note C_, 2
	note G_, 2
	note C_, 2
	note G_, 2
	note C_, 2
	note G_, 2
	note C_, 2
	note G_, 2
	note C_, 2
	note G_, 2
	note C_, 2
	note G_, 2
	note C#, 2
	note G#, 2
	note C#, 2
	note G#, 2
	note C#, 2
	note G#, 2
	note C#, 2
	note G#, 2
	note C#, 2
	note G#, 2
	note C#, 2
	note G#, 2
	note C#, 2
	note G#, 2
	note C#, 2
	note G#, 2
	note C_, 2
	note G_, 2
	note C_, 2
	note G_, 2
	note C_, 2
	note G_, 2
	note C_, 2
	note G_, 2
	note C_, 2
	note G_, 2
	note C_, 2
	note G_, 2
	note C_, 2
	note G_, 2
	note C_, 2
	note G_, 2
	note C#, 2
	note G#, 2
	note C#, 2
	note G#, 2
	note C#, 2
	note G#, 2
	note C#, 2
	note G#, 2
	note C#, 2
	note G#, 2
	note C#, 2
	note G#, 2
	note C#, 2
	note C#, 2
	note G#, 2
	note F_, 2
	note C_, 2
	note G_, 2
	note C_, 2
	note G_, 2
	note C_, 2
	note G_, 2
	note C_, 2
	note G_, 2
	note C_, 2
	note G_, 2
	note C_, 2
	note G_, 2
	note C_, 2
	octave 4
	note C_, 2
	octave 3
	note G_, 2
	note E_, 2
	note C#, 2
	note G#, 2
	note C#, 2
	note G#, 2
	note C#, 2
	note G#, 2
	note C#, 2
	note G#, 2
	note C#, 2
	note G#, 2
	note C#, 2
	note G#, 2
	note C#, 2
	note C#, 2
	note G#, 2
	note F_, 2
	note C_, 2
	note G_, 2
	note C_, 2
	note G_, 2
	note C_, 2
	note G_, 2
	note C_, 2
	note G_, 2
	note C_, 2
	note G_, 2
	octave 4
	note C_, 2
	octave 3
	note G_, 2
	note E_, 2
	note G_, 2
	note E_, 2
	note G_, 2
	note C#, 2
	note G#, 2
	note C#, 2
	note G#, 2
	note C#, 2
	note G#, 2
	note C#, 2
	note G#, 2
	note C#, 2
	note G#, 2
	note C#, 2
	note G#, 2
	note C#, 2
	note G#, 2
	note C#, 2
	note G#, 2
	note C_, 2
	note G_, 2
	note C_, 2
	note G_, 2
	note C_, 2
	note G_, 2
	note C_, 2
	note G_, 2
	note C_, 2
	note G_, 2
	note C_, 2
	note G_, 2
	note C_, 2
	note G_, 2
	note C_, 2
	note G_, 2
	note C#, 2
	note G#, 2
	note C#, 2
	note G#, 2
	note C#, 2
	note G#, 2
	note C#, 2
	note G#, 2
	note C#, 2
	note G#, 2
	note C#, 2
	note G#, 2
	note C#, 2
	note G#, 2
	note C#, 2
	note G#, 2
	note D#, 2
	note A#, 2
	note D#, 2
	note A#, 2
	note D#, 2
	note A#, 2
	note D#, 2
	note A#, 2
	note D#, 2
	note A#, 2
	note D#, 2
	note A#, 2
	note D#, 2
	note A#, 2
	note D#, 2
	note A#, 2
	note C_, 2
	note G_, 2
	octave 4
	note C_, 2
	octave 3
	note C_, 2
	note G_, 2
	octave 4
	note C_, 2
	octave 3
	note C_, 2
	note G_, 2
	octave 4
	note C_, 2
	note F_, 2
	note G_, 2
	note F_, 2
	note G_, 2
	note F_, 2
	note C_, 2
	octave 3
	note G_, 2
	note C_, 2
	note G_, 2
	octave 4
	note C_, 2
	octave 3
	note C_, 2
	note G_, 2
	octave 4
	note C_, 2
	octave 3
	note C_, 2
	note G_, 2
	octave 4
	note C_, 2
	note G_, 2
	octave 3
	note B_, 2
	octave 4
	note F#, 2
	octave 3
	note A#, 2
	octave 4
	note F_, 2
	octave 3
	note A_, 2
	octave 4
	note E_, 2
	octave 3
	note C_, 2
	note C_, 2
	note C_, 2
	note C#, 6
	note D#, 4
	octave 2
	note G_, 2
	note G_, 2
	note G_, 2
	note G#, 6
	octave 3
	note C#, 4
	note C_, 2
	note C_, 2
	note C_, 2
	note C#, 6
	note D#, 4
	octave 2
	note G_, 2
	note G_, 2
	note G_, 2
	note G#, 6
	octave 3
	note C#, 4
	note C_, 2
	note C_, 2
	note C_, 2
	note C#, 6
	note D#, 4
	octave 2
	note G_, 2
	note G_, 2
	note G_, 2
	note G#, 6
	octave 3
	note C#, 4
	note C_, 2
	note C_, 2
	note C_, 2
	note C#, 6
	note D#, 4
	octave 2
	note G_, 2
	note G_, 2
	note G_, 2
	octave 3
	note C#, 4
	note G#, 2
	note D_, 4
	note C#, 2
	note G#, 2
	note C#, 2
	note A_, 2
	note C#, 2
	octave 4
	note C#, 2
	octave 3
	note C#, 2
	note A_, 2
	note C#, 2
	note G#, 2
	note C#, 2
	note A_, 2
	note C#, 2
	octave 4
	note C#, 2
	octave 3
	note C#, 2
	octave 4
	note D_, 2
	octave 3
	note C#, 2
	note G#, 2
	note C#, 2
	note A_, 2
	note C#, 2
	octave 4
	note C#, 2
	octave 3
	note C#, 2
	note A_, 2
	note C#, 2
	note G#, 2
	note C#, 2
	note A_, 2
	note C#, 2
	octave 4
	note C#, 2
	octave 3
	note C#, 2
	octave 4
	note D_, 2
	octave 3
	note E_, 2
	note B_, 2
	note E_, 2
	octave 4
	note C_, 2
	octave 3
	note E_, 2
	octave 4
	note E_, 2
	octave 3
	note E_, 2
	octave 4
	note C_, 2
	octave 3
	note E_, 2
	note B_, 2
	note E_, 2
	octave 4
	note C_, 2
	octave 3
	note E_, 2
	octave 4
	note E_, 2
	octave 3
	note E_, 2
	octave 4
	note F_, 2
	octave 3
	note E_, 2
	note B_, 2
	note E_, 2
	octave 4
	note C_, 2
	octave 3
	note E_, 2
	octave 4
	note E_, 2
	octave 3
	note E_, 2
	octave 4
	note C_, 2
	octave 3
	note E_, 2
	note B_, 2
	note E_, 2
	octave 4
	note C_, 2
	octave 3
	note E_, 2
	octave 4
	note E_, 2
	octave 3
	note E_, 2
	octave 4
	note F_, 2
	octave 3
	note A_, 4
	note E_, 4
	octave 2
	note A_, 4
	octave 3
	note G_, 4
	note D_, 4
	octave 2
	note G_, 4
	octave 3
	note C_, 4
	note E_, 4
	note G_, 4
	note F_, 4
	note C_, 4
	octave 2
	note F_, 4
	note G_, 2
	octave 3
	note D_, 2
	octave 2
	note G_, 2
	octave 3
	note D_, 2
	octave 2
	note G_, 2
	octave 3
	note D_, 2
	octave 2
	note A_, 2
	octave 3
	note E_, 2
	octave 2
	note A_, 2
	octave 3
	note E_, 2
	octave 2
	note A_, 2
	octave 3
	note E_, 2
	octave 2
	note A#, 2
	octave 3
	note F_, 2
	octave 2
	note A#, 2
	octave 3
	note F_, 2
	octave 2
	note A#, 2
	octave 3
	note F_, 2
	note C_, 2
	note G_, 2
	note C_, 2
	note G_, 2
	note C_, 2
	note G_, 2
	note C_, 2
	note G_, 2
	note C_, 2
	note G_, 2
	note C_, 2
	note G_, 2
	note C_, 2
	note G_, 2
	note C_, 2
	note G_, 2
	note C_, 2
	note G_, 2
	note C_, 2
	note G_, 2
	note C_, 2
	note G_, 2
	note C#, 2
	note G#, 2
	note C#, 2
	note G#, 2
	note C#, 2
	note G#, 2
	note C#, 2
	note G#, 2
	note C#, 2
	note G#, 2
	note C#, 2
	note G#, 2
	note C#, 2
	note G#, 2
	note C#, 2
	note G#, 2
	note C_, 2
	note G_, 2
	note C_, 2
	note G_, 2
	note C_, 2
	note G_, 2
	note C_, 2
	note G_, 2
	note C_, 2
	note G_, 2
	note C_, 2
	note G_, 2
	note C_, 2
	note G_, 2
	note C_, 2
	note G_, 2
	note C#, 2
	note G#, 2
	note C#, 2
	note G#, 2
	note C#, 2
	note G#, 2
	note C#, 2
	note G#, 2
	note C#, 2
	note G#, 2
	note C#, 2
	note G#, 2
	note C#, 2
	note C#, 2
	note G#, 2
	note F_, 2
	sound_loop 0, .mainloop
